<svg xmlns="http://www.w3.org/2000/svg" width="900" height="438" viewBox="0 0 900 438" role="img" aria-label="Public repository metrics, code composition, weekly commits and specialization network">
<title>Public repository metrics, code composition, weekly commits and specialization network</title><style>text{font-family:Segoe UI,Arial,sans-serif}.pulse{animation:pulse 5s ease-in-out infinite}.flow{stroke-dasharray:4 9;animation:flow 24s linear infinite}@keyframes pulse{0%,100%{opacity:.45}50%{opacity:1}}@keyframes flow{to{stroke-dashoffset:-130}}@media(prefers-reduced-motion:reduce){*{animation:none!important}}</style><rect x="1" y="1" width="898" height="436" rx="18" fill="#0d131d" stroke="#253043"/><text x="26" y="29" font-size="11" fill="#79dfb5" font-weight="700" text-anchor="start">PUBLIC WORK / AT A GLANCE</text><text x="874" y="29" font-size="11" fill="#a3b1c3" font-weight="400" text-anchor="end">Updated Oct 08, 2026</text><text x="26" y="74" font-size="30" fill="#edf3fb" font-weight="650" text-anchor="start">2,400</text><text x="26" y="97" font-size="12" fill="#a3b1c3" font-weight="400" text-anchor="start">lines of code</text><rect x="26" y="112" width="192" height="3" rx="1" fill="#79dfb5" stroke="none"/><text x="246" y="74" font-size="30" fill="#edf3fb" font-weight="650" text-anchor="start">231</text><text x="246" y="97" font-size="12" fill="#a3b1c3" font-weight="400" text-anchor="start">tracked files</text><rect x="246" y="112" width="192" height="3" rx="1" fill="#77baff" stroke="none"/><text x="466" y="74" font-size="30" fill="#edf3fb" font-weight="650" text-anchor="start">180</text><text x="466" y="97" font-size="12" fill="#a3b1c3" font-weight="400" text-anchor="start">commits / 90 days</text><rect x="466" y="112" width="192" height="3" rx="1" fill="#ba9cff" stroke="none"/><text x="686" y="74" font-size="30" fill="#edf3fb" font-weight="650" text-anchor="start">10</text><text x="686" y="97" font-size="12" fill="#a3b1c3" font-weight="400" text-anchor="start">repositories</text><rect x="686" y="112" width="192" height="3" rx="1" fill="#ef92be" stroke="none"/><text x="26" y="146" font-size="11" fill="#d4deeb" font-weight="650" text-anchor="start">CODE COMPOSITION</text><text x="26" y="174" font-size="12" fill="#cbd6e6" font-weight="400" text-anchor="start">Python</text><rect x="119" y="164" width="188" height="8" rx="4" fill="#202b3c" stroke="none"/><rect x="119" y="164" width="188.0" height="8" rx="4" fill="#79dfb5" stroke="none"/><text x="392" y="174" font-size="11" fill="#a3b1c3" font-weight="400" text-anchor="end">1,093  /  46%</text><text x="26" y="203" font-size="12" fill="#cbd6e6" font-weight="400" text-anchor="start">JavaScript</text><rect x="119" y="193" width="188" height="8" rx="4" fill="#202b3c" stroke="none"/><rect x="119" y="193" width="146.55" height="8" rx="4" fill="#77baff" stroke="none"/><text x="392" y="203" font-size="11" fill="#a3b1c3" font-weight="400" text-anchor="end">852  /  36%</text><text x="26" y="232" font-size="12" fill="#cbd6e6" font-weight="400" text-anchor="start">CSS</text><rect x="119" y="222" width="188" height="8" rx="4" fill="#202b3c" stroke="none"/><rect x="119" y="222" width="40.94" height="8" rx="4" fill="#ba9cff" stroke="none"/><text x="392" y="232" font-size="11" fill="#a3b1c3" font-weight="400" text-anchor="end">238  /  10%</text><text x="26" y="261" font-size="12" fill="#cbd6e6" font-weight="400" text-anchor="start">HTML</text><rect x="119" y="251" width="188" height="8" rx="4" fill="#202b3c" stroke="none"/><rect x="119" y="251" width="37.32" height="8" rx="4" fill="#ef92be" stroke="none"/><text x="392" y="261" font-size="11" fill="#a3b1c3" font-weight="400" text-anchor="end">217  /  9%</text><text x="452" y="146" font-size="11" fill="#d4deeb" font-weight="650" text-anchor="start">SPECIALIZATION / REPOSITORY TOPICS</text><path d="M663 233 Q 501 233 501 181" fill="none" stroke="#ba9cff" opacity=".28"/><path class="flow" d="M663 233 Q 501 233 501 181" fill="none" stroke="#ba9cff" opacity=".55"/><circle cx="501" cy="181" r="11" fill="#ba9cff" fill-opacity=".12" stroke="#ba9cff"/><text x="501" y="185" font-size="11" fill="#ba9cff" font-weight="700" text-anchor="middle">3</text><text x="501" y="210" font-size="12" fill="#cbd6e6" font-weight="400" text-anchor="middle">DFIR</text><path d="M663 233 Q 797 233 797 181" fill="none" stroke="#77baff" opacity=".28"/><path class="flow" d="M663 233 Q 797 233 797 181" fill="none" stroke="#77baff" opacity=".55"/><circle cx="797" cy="181" r="9" fill="#77baff" fill-opacity=".12" stroke="#77baff"/><text x="797" y="185" font-size="11" fill="#77baff" font-weight="700" text-anchor="middle">1</text><text x="797" y="210" font-size="12" fill="#cbd6e6" font-weight="400" text-anchor="middle">Threat hunting</text><path d="M663 233 Q 503 233 503 289" fill="none" stroke="#79dfb5" opacity=".28"/><path class="flow" d="M663 233 Q 503 233 503 289" fill="none" stroke="#79dfb5" opacity=".55"/><circle cx="503" cy="289" r="10" fill="#79dfb5" fill-opacity=".12" stroke="#79dfb5"/><text x="503" y="293" font-size="11" fill="#79dfb5" font-weight="700" text-anchor="middle">2</text><text x="503" y="318" font-size="12" fill="#cbd6e6" font-weight="400" text-anchor="middle">Automation</text><path d="M663 233 Q 796 233 796 289" fill="none" stroke="#f4bf75" opacity=".28"/><path class="flow" d="M663 233 Q 796 233 796 289" fill="none" stroke="#f4bf75" opacity=".55"/><circle cx="796" cy="289" r="9" fill="#f4bf75" fill-opacity=".12" stroke="#f4bf75"/><text x="796" y="293" font-size="11" fill="#f4bf75" font-weight="700" text-anchor="middle">1</text><text x="796" y="318" font-size="12" fill="#cbd6e6" font-weight="400" text-anchor="middle">Cloud security</text><path d="M663 233 Q 662 233 662 324" fill="none" stroke="#ef92be" opacity=".28"/><path class="flow" d="M663 233 Q 662 233 662 324" fill="none" stroke="#ef92be" opacity=".55"/><circle cx="662" cy="324" r="10" fill="#ef92be" fill-opacity=".12" stroke="#ef92be"/><text x="662" y="328" font-size="11" fill="#ef92be" font-weight="700" text-anchor="middle">2</text><text x="662" y="353" font-size="12" fill="#cbd6e6" font-weight="400" text-anchor="middle">Network analysis</text><circle cx="663" cy="233" r="37" fill="#141f2e" stroke="#3b4b61"/><text x="663" y="231" font-size="10" fill="#edf3fb" font-weight="700" text-anchor="middle">SECURITY</text><text x="663" y="246" font-size="9" fill="#a3b1c3" font-weight="400" text-anchor="middle">OPERATIONS</text><text x="26" y="350" font-size="10" fill="#d4deeb" font-weight="650" text-anchor="start">WEEKLY COMMITS</text><polyline points="26,393.0 56,393.0 86,393.0 116,388.9 146,386.5 176,390.6 206,393.0 236,393.0 266,393.0 296,363.0 326,381.2 356,393.0 386,374.8" fill="none" stroke="#79dfb5" stroke-width="2" stroke-linejoin="round"/><text x="26" y="418" font-size="10" fill="#a3b1c3" font-weight="400" text-anchor="start">90 days ago</text><text x="386" y="418" font-size="10" fill="#a3b1c3" font-weight="400" text-anchor="end">now</text><text x="452" y="393" font-size="11" fill="#a3b1c3" font-weight="400" text-anchor="start">Nodes count matching repos; areas can overlap.</text><text x="452" y="414" font-size="10" fill="#a3b1c3" font-weight="400" text-anchor="start">Public originals · default branches · bots excluded from commits</text></svg>